
<svg version="1.1"  xmlns="http://www.w3.org/2000/svg" xmlns:xlink="http://www.w3.org/1999/xlink" x="0px" y="0px"
	 viewBox="0 0 512 512" style="enable-background:new 0 0 512 512;" xml:space="preserve">
		<path d="M256,0C115.041,0,0,115.049,0,256c0,140.959,115.049,256,256,256c140.96,0,256-115.049,256-256
			C512,115.04,396.951,0,256,0z M153.28,54.722C137.296,74.227,124.759,96.741,115.289,120H75.622
			C96.175,92.807,122.718,70.382,153.28,54.722z M56.453,150h48.365c-8.386,28.451-13.339,59.212-14.527,91H30.51
			C32.664,208.293,41.803,177.467,56.453,150z M56.453,362c-14.65-27.467-23.789-58.293-25.943-91h59.781
			c1.188,31.788,6.141,62.549,14.526,91H56.453z M75.622,392h39.667c9.47,23.26,22.007,45.773,37.991,65.278
			C122.718,441.618,96.175,419.193,75.622,392z M241,480.57c-43.094-8.163-74.637-48.882-93.032-88.57H241V480.57z M241,362H136.207
			c-9.169-28.003-14.604-58.861-15.897-91H241V362z M241,241H120.311c1.292-32.139,6.728-62.997,15.897-91H241V241z M241,120
			h-93.032C166.354,80.331,197.894,39.595,241,31.43V120z M455.547,150c14.65,27.467,23.789,58.293,25.943,91h-59.781
			c-1.188-31.788-6.141-62.549-14.527-91H455.547z M436.379,120h-39.668c-9.469-23.256-22.007-45.774-37.992-65.278
			C389.282,70.382,415.825,92.807,436.379,120z M271,31.43c43.098,8.163,74.642,48.891,93.032,88.57H271V31.43z M271,150h104.793
			c9.169,28.003,14.604,58.861,15.896,91H271V150z M271,270.9h120.689c-1.292,32.139-6.727,63.097-15.896,91.1H271V270.9z
			 M271,480.57V392h93.032C345.648,431.666,314.106,472.405,271,480.57z M358.719,457.278c15.981-19.5,28.52-42.016,37.992-65.278
			h39.668C415.825,419.193,389.282,441.618,358.719,457.278z M407.183,362c8.385-28.451,13.338-59.312,14.526-91.1h59.781
			c-2.154,32.707-11.293,63.633-25.942,91.1H407.183z"/>
</svg>
