<svg viewBox="-8 0 480 480" xmlns="http://www.w3.org/2000/svg"><path d="m424 48h-264v-24c0-13.253906-10.746094-24-24-24h-80c-13.253906 0-24 10.746094-24 24v24h-16c-8.835938 0-16 7.164062-16 16v400c0 8.835938 7.164062 16 16 16h432c8.835938 0 16-7.164062 16-16v-376c-.027344-22.082031-17.917969-39.972656-40-40zm-376-24c0-4.417969 3.582031-8 8-8h80c4.417969 0 8 3.582031 8 8v392h-96zm400 440h-432v-400h16v352c0 8.835938 7.164062 16 16 16h96c8.835938 0 16-7.164062 16-16v-352h264c13.253906 0 24 10.746094 24 24zm0 0"/><path d="m416 80h-224c-8.835938 0-16 7.164062-16 16v112c0 8.835938 7.164062 16 16 16h224c8.835938 0 16-7.164062 16-16v-112c0-8.835938-7.164062-16-16-16zm-224 128v-112h224v112zm0 0"/><path d="m272 184h-56v-72c0-4.417969-3.582031-8-8-8s-8 3.582031-8 8v80c-.023438 2.128906.8125 4.175781 2.320312 5.679688 1.503907 1.507812 3.550782 2.34375 5.679688 2.320312h64c4.417969 0 8-3.582031 8-8s-3.582031-8-8-8zm0 0"/><path d="m264 112c0 4.417969-3.582031 8-8 8s-8-3.582031-8-8 3.582031-8 8-8 8 3.582031 8 8zm0 0"/><path d="m376 112c0-4.417969-3.582031-8-8-8h-80c-4.417969 0-8 3.582031-8 8s3.582031 8 8 8h80c4.417969 0 8-3.582031 8-8zm0 0"/><path d="m312 192c0 4.417969-3.582031 8-8 8s-8-3.582031-8-8 3.582031-8 8-8 8 3.582031 8 8zm0 0"/><path d="m408 128c0 4.417969-3.582031 8-8 8s-8-3.582031-8-8 3.582031-8 8-8 8 3.582031 8 8zm0 0"/><path d="m400 152c-4.417969 0-8 3.582031-8 8v24h-40c-4.417969 0-8 3.582031-8 8s3.582031 8 8 8h48c2.128906.023438 4.175781-.8125 5.679688-2.320312 1.507812-1.503907 2.34375-3.550782 2.320312-5.679688v-32c0-4.417969-3.582031-8-8-8zm0 0"/><path d="m344 240h-152c-8.835938 0-16 7.164062-16 16v176c0 8.835938 7.164062 16 16 16h152c8.835938 0 16-7.164062 16-16v-176c0-8.835938-7.164062-16-16-16zm-152 192v-176h152v176zm0 0"/><path d="m416 432h16v16h-16zm0 0"/><path d="m392 432h16v16h-16zm0 0"/><path d="m416 408h16v16h-16zm0 0"/><path d="m208 272h32v16h-32zm0 0"/><path d="m256 272h32v16h-32zm0 0"/><path d="m304 272h32v16h-32zm0 0"/><path d="m208 304h32v16h-32zm0 0"/><path d="m256 304h32v16h-32zm0 0"/><path d="m304 304h32v16h-32zm0 0"/><path d="m208 336h32v16h-32zm0 0"/><path d="m256 336h32v16h-32zm0 0"/><path d="m304 336h32v16h-32zm0 0"/><path d="m208 368h32v16h-32zm0 0"/><path d="m256 368h32v16h-32zm0 0"/><path d="m304 368h32v16h-32zm0 0"/><path d="m208 400h128v16h-128zm0 0"/><path d="m376 248h56v16h-56zm0 0"/><path d="m376 272h16v16h-16zm0 0"/><path d="m400 272h32v16h-32zm0 0"/><path d="m376 296h56v16h-56zm0 0"/><path d="m128 216c0 4.417969-3.582031 8-8 8s-8-3.582031-8-8 3.582031-8 8-8 8 3.582031 8 8zm0 0"/><path d="m120 176c4.417969 0 8-3.582031 8-8v-80c0-4.417969-3.582031-8-8-8s-8 3.582031-8 8v80c0 4.417969 3.582031 8 8 8zm0 0"/><path d="m128 56c0 4.417969-3.582031 8-8 8s-8-3.582031-8-8 3.582031-8 8-8 8 3.582031 8 8zm0 0"/><path d="m120 336c4.417969 0 8-3.582031 8-8v-80c0-4.417969-3.582031-8-8-8s-8 3.582031-8 8v80c0 4.417969 3.582031 8 8 8zm0 0"/><path d="m80 296c0 4.417969-3.582031 8-8 8s-8-3.582031-8-8 3.582031-8 8-8 8 3.582031 8 8zm0 0"/><path d="m72 272c4.417969 0 8-3.582031 8-8v-80c0-4.417969-3.582031-8-8-8s-8 3.582031-8 8v80c0 4.417969 3.582031 8 8 8zm0 0"/><path d="m66.320312 381.679688c.417969.390624.871094.742187 1.359376 1.039062l.082031.082031c1.269531.792969 2.738281 1.210938 4.238281 1.199219h48c4.417969 0 8-3.582031 8-8s-3.582031-8-8-8h-40v-24c0-4.417969-3.582031-8-8-8s-8 3.582031-8 8v32c-.003906 1.808594.617188 3.558594 1.761719 4.960938.160156.238281.398437.480468.558593.71875zm0 0"/><path d="m80 136c0 4.417969-3.582031 8-8 8s-8-3.582031-8-8 3.582031-8 8-8 8 3.582031 8 8zm0 0"/><path d="m72 112c4.417969 0 8-3.582031 8-8v-56h8c4.417969 0 8-3.582031 8-8s-3.582031-8-8-8h-16c-2.128906-.023438-4.175781.8125-5.679688 2.320312-1.507812 1.503907-2.34375 3.550782-2.320312 5.679688v64c0 4.417969 3.582031 8 8 8zm0 0"/></svg>